<svg xmlns="http://www.w3.org/2000/svg" xmlns:xlink="http://www.w3.org/1999/xlink" width="400" zoomAndPan="magnify" viewBox="0 0 300 299.999988" height="400" preserveAspectRatio="xMidYMid meet" version="1.0"><defs><clipPath id="558cb8a009"><path d="M 7.203125 50.21875 L 151 50.21875 L 151 255.71875 L 7.203125 255.71875 Z M 7.203125 50.21875 " clip-rule="nonzero"/></clipPath><clipPath id="3ec2486a60"><path d="M 78 50.21875 L 222 50.21875 L 222 133 L 78 133 Z M 78 50.21875 " clip-rule="nonzero"/></clipPath><clipPath id="d272bcb3bb"><path d="M 150 50.21875 L 292.953125 50.21875 L 292.953125 255.71875 L 150 255.71875 Z M 150 50.21875 " clip-rule="nonzero"/></clipPath></defs><g clip-path="url(#558cb8a009)"><path fill="#000000" d="M 7.636719 196.84375 L 7.636719 214.679688 L 78.847656 255.792969 L 150.058594 214.679688 L 78.847656 173.5625 L 78.847656 91.332031 L 7.636719 50.21875 Z M 7.636719 196.84375 " fill-opacity="1" fill-rule="nonzero"/></g><g clip-path="url(#3ec2486a60)"><path fill="#000000" d="M 221.277344 91.332031 L 150.058594 50.21875 L 78.847656 91.332031 L 150.058594 132.449219 Z M 221.277344 91.332031 " fill-opacity="1" fill-rule="nonzero"/></g><g clip-path="url(#d272bcb3bb)"><path fill="#000000" d="M 150.058594 214.679688 L 221.277344 255.792969 L 292.488281 214.679688 L 292.488281 50.21875 L 221.277344 91.332031 L 221.277344 173.5625 Z M 150.058594 214.679688 " fill-opacity="1" fill-rule="nonzero"/></g></svg>